<svg xmlns="http://www.w3.org/2000/svg" viewBox="0 0 552 557"><defs><style>.cls-1{opacity:0.35;}.cls-2{fill:#fafbfc;}.cls-2,.cls-9{stroke:#000;}.cls-2,.cls-4,.cls-9{stroke-miterlimit:10;}.cls-3{fill:#020202;}.cls-4,.cls-6{fill:#0090d8;}.cls-4{stroke:#4d4d4d;}.cls-5{fill:#f2f2f2;}.cls-7{fill:#000102;}.cls-8{fill:#f5fafc;}.cls-9{fill:#fff;}</style></defs><g id="Capa_1" data-name="Capa 1"><rect class="cls-2" x="149.31" y="444.42" width="54.97" height="27.48"/><path class="cls-3" d="M25.64,271.56a95.59,95.59,0,0,1,2.89-14.47c.88-3.15,3.67-9.51,9.2-22.08,0,0,6.06-13.75,11.9-18.12a29.26,29.26,0,0,1,5-3c11.84-5.76,27.77-4.72,34.73-4l5.22,12.9a76.63,76.63,0,0,0-12.66,0c-6.94.57-10.41.81-14.38,2.73-7.34,3.55-11.27,10-12.93,12.73a46.14,46.14,0,0,0-2.9,5.78c-1.78,4-2.83,7.18-5.78,17.36-.81,2.79-1.79,6.21-2.9,10.13H25.64Z"/><path class="cls-2" d="M376.42,495.05A13.11,13.11,0,0,1,380,503a14.07,14.07,0,0,1-.72,5.06c-2,5.7-11.11,12.27-24.59,15.92-7.76,2.1-14.34,2.36-27.49,2.89a158.92,158.92,0,0,1-17.35,0c-9.94-.6-16.75-1-24.59-4.34a50,50,0,0,1-14.89-9.84L267.93,511c.5-1.85,1-3.78,1.44-5.79q.86-3.75,1.45-7.23A33.15,33.15,0,0,0,281,509.51c.14.1.32.23.54.37a36.74,36.74,0,0,0,15.37,5.42c15.89,2.2,37.61,0,37.61,0s17.87-1.81,33.27-8.68a13.94,13.94,0,0,0,8.68-11.57Z"/><path d="M265.76,430.68l59-1.45c2.47-17.16,4.15-47-8.48-79.56a148.22,148.22,0,0,0-14.15-27.48L248.4,333.76a156.48,156.48,0,0,1,14.15,36.16A158.09,158.09,0,0,1,265.76,430.68Z"/><path d="M212.24,429.23H151.48c-2.51-17.16-4.24-47,8.68-79.56a146.27,146.27,0,0,1,14.47-27.48l55,11.57a149,149,0,0,0-17.35,95.47Z"/><path class="cls-4" d="M409,205.61C403,309.25,331.58,340.29,244.67,340.29c-90.49-.23-165.18-33.56-164.82-149.75V168.17c-.36-116,74.33-149.3,164.82-149.75,31-.16,91.22-.25,131.52,45.44,25.92,29.38,31.35,63.89,32.77,80.4-15.1.46-31,1.38-47.73,2.9-17.14,1.55-33.39,3.59-48.69,5.94a48.51,48.51,0,0,0-10.89-19.77c-12.85-13.68-33.44-17.44-57-17.44-38.42.69-71.1,9.36-70.56,59.81v7.53c-.54,50,32.14,59.13,70.56,59.81,17.52.32,41.46.12,57.23-17.81,11.38-12.94,12.86-28.83,13-36.12q24.58,4.37,49.18,8.68Q386.54,201.72,409,205.61Z"/><circle class="cls-5" cx="209.27" cy="81.99" r="27.41"/><ellipse cx="207.82" cy="82.06" rx="13.7" ry="21.7"/><path class="cls-6" d="M244.06,174.64l15-25h24.05Q273,167.21,262.86,184.77c-1,1.8-4.82,5.85-6.54,12.38a31.57,31.57,0,0,0-.69,12.21H232.49a37.31,37.31,0,0,0-1.39-13,37.75,37.75,0,0,0-5.84-11.63c-4.48-6.3-10.89-16.79-20.7-35.14h24.08Z"/><path d="M225.12,44.87c0,.91-7.05,1.65-21.11,3.1-13.6,1.39-20.41,2.07-20.62,1.2-.36-1.5,9.28-6.53,20.3-7.66S225.16,43.32,225.12,44.87Z"/><circle class="cls-5" cx="282.54" cy="81.58" r="27.41"/><path d="M307.08,50.73c-.27.87-7.23-.3-21.16-2.68-13.48-2.31-20.22-3.48-20.19-4.37.06-1.55,10.7-3.8,21.61-1.94S307.54,49.25,307.08,50.73Z"/><path class="cls-7" d="M290.15,259.74c.52,1.14-18.79,17.25-44.44,17.6-25.94.35-45.89-15.56-45.41-16.68s18.34,11.24,44.46,11.12C271.46,271.65,289.65,258.65,290.15,259.74Z"/><path class="cls-7" d="M294.64,262.38c-.19.17-4,0-5.33-2.28s.48-5.88.72-6-1.06,2.84.27,5.26S294.83,262.22,294.64,262.38Z"/><path class="cls-7" d="M201.42,255.27c.27.16,1.69,4.33-.22,6.56s-6.51,1.43-6.69,1.2,3.48.21,5.52-2S201.17,255.13,201.42,255.27Z"/><ellipse cx="280.82" cy="81.14" rx="13.7" ry="21.7"/><path class="cls-2" d="M220.92,440.8a7.5,7.5,0,0,1-2.9,4.34c-7.45,6.06-28.08,5.78-40.5,5.79-6.38,0-26,.1-33.27-5.79a7.41,7.41,0,0,1-2.89-4.34c-.69-3.92,3.13-7.54,4.34-8.68,6.07-5.76,15.35-4.31,34.71-4.34,20.14,0,29.9-1.61,36.17,4.34C217.77,433.26,221.59,436.89,220.92,440.8Z"/><path class="cls-2" d="M189.82,469c4.59,3.09,23.43,15.78,21.69,28.93-2.09,15.79-32.8,24.36-54.24,24.59-20,.22-51.14-6.59-54.25-23.14-2.44-13.06,13.71-26,17.36-28.93,15-12,32-11.75,37.61-11.58A60.54,60.54,0,0,1,189.82,469Z"/><path class="cls-2" d="M198.28,450.93v7.91l-2.68,5.83-1.44,2.89c-.49,1-1,1.93-1.45,2.9a48,48,0,0,1,10.12,10.12,49.27,49.27,0,0,1,8.8,20.61l4.22-1.8,4.34-2.9L226,493.6l5.78-2.89-1.44-2.9-5.79-8.68-2.89-5.78-2.89-7.23L217,460.69l-1.14-4.7-1.63-5.06v-3.62"/><polygon class="cls-2" points="146.42 447.31 146.42 450.93 146.42 456.56 146.42 458.84 152.21 457.44 152.21 449.77 146.42 447.31"/><path class="cls-2" d="M108.81,509.51c2.72,2.67,5.74,3.94,10.13,5.79a59.8,59.8,0,0,0,8.67,2.89,93.45,93.45,0,0,0,84-15.7l.61,8.1-9.41,4.71c-15.85,7.93-17.8,8.93-21.69,10.12a73.6,73.6,0,0,1-15.92,2.9,116.83,116.83,0,0,1-13,0,113.71,113.71,0,0,1-11.42-.77,107.2,107.2,0,0,1-15.56-3.4c-3.89-1-9-2.5-15-4.51a12.08,12.08,0,0,1-5.79-4.34c-1.73-2.51-1.9-5.06-2.12-8.45a32.9,32.9,0,0,1,.67-8.91A20.94,20.94,0,0,0,108.81,509.51Z"/><polygon class="cls-2" points="212.24 510.59 221 506.74 227.43 503.73 233.21 500.83 234.66 497.94 234.66 495.05 233.21 493.6 231.76 490.71 211.63 501.19 212.24 510.59"/><path class="cls-2" d="M357.46,468.74c1.81,1.32,22.07,16,19,29.2-2.83,12-24.32,15.12-49.18,18.8,0,0-23.6,3.5-39.06-2.89-5.7-2.36-10.12-6.17-13-8.68-2.36-2-3.75-3.56-4.34-5.78-.37-1.4-.45-3.19,1.45-8.68,1.68-4.87,2.52-7.31,4.34-10.13s4.84-6.36,11.41-10.39c7.21-4.42,19.7-12.1,37.61-11.57C331,458.77,344.51,459.35,357.46,468.74Z"/><path class="cls-2" d="M288.18,469c-.65-.32-1.31-1-4.34-10.13C282,453.2,281,450.36,281,448.76c-.23-5.16,1.62-9.51,4.34-15.91a13,13,0,0,1,1.44-2.9c1.48-1.82,4.54-3.79,15.91-2.89,10.46.82,15.68,1.23,18.81,4.34,5.55,5.51,5.78,15.26,5.79,15.91,0,0,0,.83,0,1.76,0,1.33,0,2.39,0,2.58,0,5.16.23,5.22,0,5.79-1,2.32-5.24,1.94-11.58,2.89a78.61,78.61,0,0,0-11.57,2.89C293.91,466.59,291.3,470.57,288.18,469Z"/><path class="cls-2" d="M331.57,448.76A3.69,3.69,0,0,1,333,450.2a10.41,10.41,0,0,1,1.45,4.34c.43,2.53.64,3.79,0,4.34-.43.37-1.26.25-2.9,0-2.61-.4-3.92-.6-4.33-1.44-.18-.36,0-.44,0-2.9,0-1.11,0-1,0-1.44.07-1.61.13-3.58,1.44-4.34A3.14,3.14,0,0,1,331.57,448.76Z"/><path class="cls-2" d="M337.36,437.19c1.1,4.2-2.59,8.34-2.89,8.67-6,6.53-15.44,1.45-35.44,1.45s-29.48,5.08-35.44-1.45c-.31-.33-4-4.47-2.89-8.67,2.64-10.13,30.33-10.13,38.33-10.13S334.71,427.06,337.36,437.19Z"/><path class="cls-2" d="M265,447.31a28.33,28.33,0,0,0-1.44,2.89c-2.79,6.57-.86,9.53-2.89,15.92-.69,2.14-1.88,4.33-4.34,8.67-1.19,2.09-2.24,3.8-4.34,7.24-4.19,6.83-4.18,6.74-4.34,7.23a15.6,15.6,0,0,0,3.3,14.8c1.61,1.71,4.8,3,11.16,5.45,4.56,1.79,5.21,1.65,5.58,1.5,3.76-1.48,0-10,4.55-20.3,2.94-6.72,9-13.23,15.06-19.79l.69-.73L281,448.76Z"/><line class="cls-2" x1="247.37" y1="489.9" x2="270.82" y2="499.39"/><polygon class="cls-8" points="215.31 71.36 212.34 70.52 209.96 72.49 209.85 69.4 207.24 67.74 210.14 66.68 210.91 63.69 212.82 66.12 215.9 65.92 214.18 68.49 215.31 71.36"/><polygon class="cls-8" points="278.92 69.31 275.95 68.46 273.57 70.43 273.45 67.34 270.85 65.69 273.75 64.62 274.52 61.63 276.42 64.06 279.51 63.87 277.79 66.43 278.92 69.31"/><path class="cls-3" d="M487.08,220.93c-6.73,5.77-14.62,12.3-23.87,19.53-5.26,4.11-11.08,8.54-19.53,9.4a29.15,29.15,0,0,1-5.79,0c-13.11-1.16-26.24-10.25-31.82-14.46q1.08-6.89,2.17-13.75a77,77,0,0,0,10.85,6.51c5.42,2.68,8.92,4.41,13.74,5.07,9,1.22,16.26-2.12,19.53-3.62,3.52-1.62,4.86-2.83,13-8.68,6.19-4.44,11.25-7.94,14.46-10.13a19.73,19.73,0,0,0,7.24,10.13Z"/><path class="cls-9" d="M481.29,194.89a5.06,5.06,0,0,0-2.78,1.33l-.11.12c-3.37,3.53.28,11.82,1.44,14.46a28.74,28.74,0,0,0,5.79,8.68,25.87,25.87,0,0,0,8.68,5.79c2.58,1,5.3,2.07,8.68,1.45,3.08-.57,7.31-2.41,7.23-4.34-.08-2.1-5.13-2.08-12.29-6.51a30.31,30.31,0,0,1-8.68-7.24C484.49,202.52,483.27,194.7,481.29,194.89Z"/><path class="cls-9" d="M509.5,159.45c.05-1.07.09-2.56,0-4.34a29.78,29.78,0,0,0-1.45-8.68c-.87-2.46-1.8-5.08-4.34-7.23a13.77,13.77,0,0,0-10.12-2.89c-1.34.13-6.11.6-8.68,4.34a7.36,7.36,0,0,0-1.45,4.34c0,1.28.46,2.57,2.89,5.78,3.81,5,5,4.79,5.79,7.24.69,2,.45,3.84,0,7.23a18.66,18.66,0,0,1-1.45,5.78c-1.06,2.31-1.86,2.48-4.34,5.79A27.36,27.36,0,0,0,482,184a25.78,25.78,0,0,0-1.44,7.24,26.76,26.76,0,0,0,0,2.89c.33,5.79,15.73,28,36.16,26a33.7,33.7,0,0,0,13-4.34c2.39-1.31,6.45-5.23,14.46-13,3.84-3.73,5.8-5.73,5.79-8.68a7.49,7.49,0,0,0-2.89-5.79c-3.11-2.32-7.16-1-10.13,0-3.65,1.21-7.78,3.85-8.68,7.24,0,.07,0,.14,0,.18-.52,2.17-.35,5.51,1.49,7s5.85,1.34,8.68-1.45"/><path class="cls-9" d="M544.21,185.49l1.45-1.45a19.18,19.18,0,0,0,1.45-1.44c.92-1.33.33-3.27,0-4.34s-1-3.28-2.9-4.34c-.69-.4-1.85-.81-5.78,0-3.29.67-5.74,1.17-8.68,2.89-3.21,1.88-6.33,3.7-7.23,7.23-1.09,4.25,1.39,9.59,4.34,10.13,2.14.39,2.34-2.16,7.23-4.34C537.39,188.35,542.5,187.19,544.21,185.49Z"/><path class="cls-9" d="M539.87,172.47a6.11,6.11,0,0,0,1.45-4.34c-.44-3.36-4.7-5.24-7.23-5.78a13.3,13.3,0,0,0-8.68,1.44,21,21,0,0,0-5.79,4.34c-2.64,2.49-4,3.74-4.34,5.79a7.84,7.84,0,0,0,1.45,5.78,7.09,7.09,0,0,0,4.34,2.9c3.32.47,4.18-2.9,10.13-5.79C535.55,174.7,537.84,175.18,539.87,172.47Z"/><path class="cls-9" d="M532.64,159.45a5.64,5.64,0,0,0,0-2.89,7.44,7.44,0,0,0-2.89-4.34,9,9,0,0,0-5.79-1.45,11.59,11.59,0,0,0-5.78,1.45c-.48.27-1.31.8-4.34,4.34-2.57,3-3.86,4.51-4.34,5.79-.39,1-1.6,4.21,0,7.23.45.86,1.33,2.52,2.89,2.89,3.3.78,4.6-5.42,11.57-8.68C528.06,161.88,531.75,162.08,532.64,159.45Z"/><path class="cls-3" d="M508.77,176.09a1.61,1.61,0,0,1,1.45,0c.72.4.93,1.56,0,8.68-.43,3.28-.65,4.42-1.45,5.78-.93,1.61-2.43,3.15-2.89,2.9s.74-2.37,1.45-5.79C508.64,181.34,506.82,177.05,508.77,176.09Z"/><path class="cls-9" d="M12.62,296.15c-.17.44-.6,3.19-1.45,8.68S9.89,313.09,9.72,315c-.68,7.88-1,12,1.45,15.92a15.74,15.74,0,0,0,7.23,5.78c3.39,1.49,4.51.69,11.57,1.45,9.76,1,10.89,2.9,14.47,1.44,2.15-.87,3.72-2.35,7.23-2.89a14.56,14.56,0,0,0,3.62-.72A12,12,0,0,0,59.63,333a13.2,13.2,0,0,0,2.69-4.35,23.58,23.58,0,0,0,.92-5.06c.65-4.88.95-7.38,0-10.12a7.48,7.48,0,0,0-1.44-2.9,9.62,9.62,0,0,0-.73-.72,8.88,8.88,0,0,1,1.45,1.45A7.38,7.38,0,0,1,64,314.23a7.8,7.8,0,0,1,0,2.89c-.33,3.14.27,3,0,5.79a21,21,0,0,1-1.45,5.79,9.64,9.64,0,0,1-1.45,2.89c-.74.91-1.4,1.27-4.33,2.89-2.61,1.44-3.92,2.17-4.34,2.9-.75,1.27-1,3.26,0,4.33,1.46,1.63,4.92.33,5.78,0,1.84-.69,2.62-1.56,4.34-2.89,4.26-3.28,5.32-2.44,7.23-4.34,2.83-2.8,2.86-6.94,2.9-13a25.66,25.66,0,0,0-1.45-10.12,25.26,25.26,0,0,0-4.34-7.23c-2.13-2.57-3.14-2.84-5.79-5.79a44.73,44.73,0,0,1-4.33-5.79C50.49,283.65,17,284.63,12.62,296.15Z"/><path class="cls-9" d="M29.25,296.87c-11.25-.13-13.27.65-15.91-1.44C10,292.75,9.19,288.22,9,285.3a15.16,15.16,0,0,1,5.79-10.13,15.06,15.06,0,0,1,10.12-2.89H45.16a16.18,16.18,0,0,1,10.13,4.34c1.36,1.32,4.32,4.18,4.34,8.68A11.45,11.45,0,0,1,55.29,294a11.07,11.07,0,0,1-6.3,2.17C40.5,296.4,34.07,296.93,29.25,296.87Z"/></g></svg>